<svg width="55" height="54" viewBox="0 0 55 54" fill="none" xmlns="http://www.w3.org/2000/svg">
<path d="M41.5999 22.9586H35.6412V26.5444H41.5999V22.9586Z" fill="#F2C94C"/>
<path d="M49.1055 38.4793H31.8095C31.4755 38.4793 31.2118 38.2156 31.2118 37.8817C31.2118 37.5477 31.4755 37.284 31.8095 37.284H49.1055V8.65065H42.5492C42.2152 8.65065 41.9516 8.387 41.9516 8.05303V1.4967H13.3181V42.0651H49.1231V38.4793H49.1055ZM42.1976 21.7809C42.5316 21.7809 42.7953 22.0446 42.7953 22.3785V27.1596C42.7953 27.4935 42.5316 27.7572 42.1976 27.7572H35.6413V30.7453C35.6413 30.9738 35.5183 31.1848 35.3074 31.2726C35.2195 31.3078 35.1316 31.3429 35.0437 31.3429C34.9207 31.3429 34.78 31.3078 34.6745 31.2199L26.6769 25.1206C26.5187 24.9976 26.4484 24.8217 26.4484 24.646C26.4484 24.4526 26.5363 24.2769 26.6945 24.1714L34.6921 18.3533C34.8679 18.2303 35.114 18.1951 35.3074 18.3006C35.5007 18.4061 35.6413 18.5994 35.6413 18.8279V21.8161H42.1976V21.7809ZM18.6793 3.88719H23.4603C23.7942 3.88719 24.0579 4.15087 24.0579 4.48484C24.0579 4.81881 23.7942 5.08246 23.4603 5.08246H18.6793C18.3453 5.08246 18.0816 4.81881 18.0816 4.48484C18.0816 4.15087 18.3453 3.88719 18.6793 3.88719ZM18.6793 7.47297H36.5729C36.9069 7.47297 37.1705 7.73663 37.1705 8.0706C37.1705 8.40456 36.9069 8.66822 36.5729 8.66822H18.6793C18.3453 8.66822 18.0816 8.40456 18.0816 8.0706C18.0816 7.73663 18.3453 7.47297 18.6793 7.47297ZM20.4721 29.2337V35.5088C20.4721 35.8428 20.2085 36.1064 19.8745 36.1064C19.5405 36.1064 19.2769 35.8428 19.2769 35.5088V27.7572H17.484C17.15 27.7572 16.8863 27.4935 16.8863 27.1596V22.3785C16.8863 22.0446 17.15 21.7809 17.484 21.7809H19.2769V14.0293C19.2769 13.6954 19.5405 13.4316 19.8745 13.4316C20.2085 13.4316 20.4721 13.6954 20.4721 14.0293V20.3044C21.0697 19.2673 21.8783 18.3533 22.8275 17.6151C24.3918 16.4374 26.2551 15.8046 28.2237 15.8046C28.5577 15.8046 28.8213 16.0682 28.8213 16.4022C28.8213 16.7362 28.5577 16.9999 28.2237 16.9999C25.095 16.9999 22.265 18.9333 21.0697 21.7809H22.265C22.599 21.7809 22.8626 22.0446 22.8626 22.3785V27.1596C22.8626 27.4935 22.599 27.7572 22.265 27.7572H21.0697C22.265 30.6047 25.095 32.5382 28.2237 32.5382C28.5577 32.5382 28.8213 32.8019 28.8213 33.1358C28.8213 33.4698 28.5577 33.7335 28.2237 33.7335C26.2551 33.7335 24.3918 33.1007 22.8275 31.923C21.8607 31.2023 21.0697 30.2707 20.4721 29.2337ZM28.2237 39.0945C27.5734 39.0945 27.0285 38.5672 27.0285 37.8993C27.0285 37.2313 27.5558 36.704 28.2237 36.704C28.8916 36.704 29.419 37.2313 29.419 37.8993C29.419 38.5672 28.8916 39.0945 28.2237 39.0945Z" fill="#F2C94C"/>
<path d="M34.4463 29.5149V27.142V22.361V19.9529L28.0305 24.6284L34.4463 29.5149Z" fill="#F2C94C"/>
<path d="M21.6673 22.9586H20.2259H18.0815V26.5444H21.6673V22.9586Z" fill="#F2C94C"/>
<path d="M49.1055 51.6095C48.4551 51.6095 47.9102 52.1369 47.9102 52.8048C47.9102 53.4727 48.4375 54 49.1055 54C49.7734 54 50.3007 53.4727 50.3007 52.8048C50.3007 52.1369 49.7734 51.6095 49.1055 51.6095Z" fill="#F2C94C"/>
<path d="M43.1468 2.32275V7.45535H48.2618L43.1468 2.32275Z" fill="#F2C94C"/>
<path d="M12.123 47.4262V8.65063H8.53717V51.6095H41.9516V48.0238H12.7206C12.3866 48.0238 12.123 47.7601 12.123 47.4262Z" fill="#F2C94C"/>
<path d="M49.1231 43.2428H13.3181V46.8285H49.1231V43.2428Z" fill="#F2C94C"/>
<path d="M3.77374 36.6864C3.77374 35.7021 2.96518 34.8936 1.98085 34.8936C0.996521 34.8936 0.187958 35.7021 0.187958 36.6864C0.187958 37.6707 0.996521 38.4793 1.98085 38.4793C2.96518 38.4793 3.77374 37.6707 3.77374 36.6864Z" fill="#F2C94C"/>
<path d="M4.35369 45.3345C5.00405 45.3345 5.54893 45.8618 5.54893 46.5297C5.54893 47.1977 5.02162 47.725 4.35369 47.725C3.68575 47.725 3.15842 47.1977 3.15842 46.5297C3.15842 45.8618 3.68575 45.3345 4.35369 45.3345Z" fill="#F2C94C"/>
<path d="M3.17614 25.0502C3.8265 25.0502 4.37138 25.5775 4.37138 26.2454C4.37138 26.9134 3.84407 27.4407 3.17614 27.4407C2.5082 27.4407 1.98087 26.9134 1.98087 26.2454C1.98087 25.5775 2.5082 25.0502 3.17614 25.0502Z" fill="#F2C94C"/>
<path d="M52.0939 2.37561C52.7442 2.37561 53.2891 2.90292 53.2891 3.57085C53.2891 4.23879 52.7618 4.7661 52.0939 4.7661C51.4259 4.7661 50.8986 4.23879 50.8986 3.57085C50.8986 2.90292 51.4259 2.37561 52.0939 2.37561Z" fill="#F2C94C"/>
<path d="M53.289 19.0916C53.9394 19.0916 54.4843 19.6189 54.4843 20.2868C54.4843 20.9548 53.9569 21.4821 53.289 21.4821C52.6211 21.4821 52.0938 20.9548 52.0938 20.2868C52.0938 19.6189 52.6211 19.0916 53.289 19.0916Z" fill="#F2C94C"/>
<path d="M53.289 22.6598C53.9394 22.6598 54.4843 23.1871 54.4843 23.8551C54.4843 24.523 53.9569 25.0503 53.289 25.0503C52.6211 25.0503 52.0938 24.523 52.0938 23.8551C52.0938 23.1871 52.6211 22.6598 53.289 22.6598Z" fill="#F2C94C"/>
<path d="M53.289 26.2456C53.9394 26.2456 54.4843 26.7729 54.4843 27.4408C54.4843 28.1088 53.9569 28.6361 53.289 28.6361C52.6211 28.6361 52.0938 28.1088 52.0938 27.4408C52.0938 26.7729 52.6211 26.2456 53.289 26.2456Z" fill="#F2C94C"/>
<path d="M53.289 29.8313C53.9394 29.8313 54.4843 30.3586 54.4843 31.0265C54.4843 31.6945 53.9569 32.2218 53.289 32.2218C52.6211 32.2218 52.0938 31.6945 52.0938 31.0265C52.0938 30.3586 52.6211 29.8313 53.289 29.8313Z" fill="#F2C94C"/>
<path d="M3.17614 11.92C3.8265 11.92 4.37138 12.4473 4.37138 13.1153C4.37138 13.7832 3.84407 14.3105 3.17614 14.3105C2.5082 14.3105 1.98087 13.7832 1.98087 13.1153C1.98087 12.4473 2.5082 11.92 3.17614 11.92Z" fill="#F2C94C"/>
<path d="M1.69033 3.37071L0 5.06104L1.69035 6.75138L3.38068 5.06105L1.69033 3.37071Z" fill="#F2C94C"/>
<path d="M5.0612 3.37484L3.37085 5.06519L5.0612 6.75553L6.75155 5.06519L5.0612 3.37484Z" fill="#F2C94C"/>
<path d="M1.69463 -2.13848e-05L0.00430298 1.69031L1.69465 3.38066L3.38498 1.69033L1.69463 -2.13848e-05Z" fill="#F2C94C"/>
<path d="M5.06547 0.00410996L3.37512 1.69446L5.06547 3.38481L6.75582 1.69446L5.06547 0.00410996Z" fill="#F2C94C"/>
</svg>
