<svg width="57" height="54" viewBox="0 0 57 54" fill="none" xmlns="http://www.w3.org/2000/svg">
<path d="M32.6404 50.2274V48.3411C32.6404 47.9897 32.9178 47.7123 33.2692 47.7123H47.7123V20.1021H38.5952C37.0603 22.0438 34.9705 23.5418 32.6404 24.374V26.3712C34.0274 26.3712 35.1555 27.4993 35.1555 28.8863C35.1555 30.2733 34.0274 31.4014 32.6404 31.4014V33.2877C32.6404 35.7103 30.6616 37.689 28.239 37.689C25.8164 37.689 23.8377 35.7103 23.8377 33.2877V31.4014C22.4507 31.4014 21.3226 30.2733 21.3226 28.8863C21.3226 27.4993 22.4507 26.3712 23.8377 26.3712V24.374C21.5075 23.5418 19.4178 22.0438 17.8829 20.1021H8.76575V47.7123H13.7959V34.5267C13.7959 34.1753 14.0733 33.8979 14.4246 33.8979C14.776 33.8979 15.0534 34.1753 15.0534 34.5267V47.7123H17.5685V43.3109C17.5685 42.9596 17.8459 42.6822 18.1973 42.6822C18.5486 42.6822 18.826 42.9596 18.826 43.3109V47.7123H23.2274C23.5788 47.7123 23.8562 47.9897 23.8562 48.3411V50.2274H32.6404ZM43.311 35.7842C43.9952 35.7842 44.5685 36.339 44.5685 37.0418C44.5685 37.7445 44.0137 38.2993 43.311 38.2993C42.6082 38.2993 42.0534 37.7445 42.0534 37.0418C42.0534 36.339 42.6082 35.7842 43.311 35.7842ZM43.311 39.5568C43.9952 39.5568 44.5685 40.1116 44.5685 40.8144C44.5685 41.5171 44.0137 42.0719 43.311 42.0719C42.6082 42.0719 42.0534 41.5171 42.0534 40.8144C42.0534 40.1116 42.6082 39.5568 43.311 39.5568ZM43.311 43.3294C43.9952 43.3294 44.5685 43.8842 44.5685 44.587C44.5685 45.2897 44.0137 45.8445 43.311 45.8445C42.6082 45.8445 42.0534 45.2897 42.0534 44.587C42.0534 43.8842 42.6082 43.3294 43.311 43.3294ZM34.5267 36.4315H39.5568C39.9082 36.4315 40.1856 36.7089 40.1856 37.0603C40.1856 37.4116 39.9082 37.689 39.5568 37.689H34.5267C34.1753 37.689 33.898 37.4116 33.898 37.0603C33.898 36.7089 34.1753 36.4315 34.5267 36.4315ZM34.5267 40.2041H39.5568C39.9082 40.2041 40.1856 40.4815 40.1856 40.8329C40.1856 41.1842 39.9082 41.4616 39.5568 41.4616H34.5267C34.1753 41.4616 33.898 41.1842 33.898 40.8329C33.898 40.4815 34.1753 40.2041 34.5267 40.2041ZM34.5267 43.9767H39.5568C39.9082 43.9767 40.1856 44.2541 40.1856 44.6055C40.1856 44.9568 39.9082 45.2342 39.5568 45.2342H34.5267C34.1753 45.2342 33.898 44.9568 33.898 44.6055C33.898 44.2541 34.1753 43.9767 34.5267 43.9767ZM14.4432 32.0486C13.7589 32.0486 13.1856 31.4938 13.1856 30.7911C13.1856 30.0883 13.7404 29.5336 14.4432 29.5336C15.1459 29.5336 15.7007 30.0883 15.7007 30.7911C15.7007 31.4938 15.1459 32.0486 14.4432 32.0486Z" fill="#F2C94C"/>
<path d="M23.856 13.2041C23.856 14.2397 24.7067 15.0904 25.7423 15.0904C26.7779 15.0904 27.6286 14.2397 27.6286 13.2041V11.3177H25.7423C24.7067 11.3177 23.856 12.1684 23.856 13.2041Z" fill="#F2C94C"/>
<path d="M28.2577 36.4129C29.9961 36.4129 31.4015 35.0075 31.4015 33.2691V31.3828H25.1324V33.2691C25.1324 35.0075 26.5378 36.4129 28.2762 36.4129H28.2577Z" fill="#F2C94C"/>
<path d="M23.8561 27.6289C23.1718 27.6289 22.5986 28.1837 22.5986 28.8864C22.5986 29.5892 23.1534 30.144 23.8561 30.144H32.6403C33.3246 30.144 33.8979 29.5892 33.8979 28.8864C33.8979 28.1837 33.3431 27.6289 32.6403 27.6289H23.8561Z" fill="#F2C94C"/>
<path d="M46.8929 0.331441L45.1145 2.10986L46.8929 3.88828L48.6713 2.10986L46.8929 0.331441Z" fill="#F2C94C"/>
<path d="M10.3969 6.41117L8.61853 8.18958L10.397 9.968L12.1754 8.1896L10.3969 6.41117Z" fill="#F2C94C"/>
<path d="M3.14372 8.80263C4.17934 8.80263 5.03003 7.95195 5.03003 6.91633C5.03003 5.88071 4.17934 5.03003 3.14372 5.03003C2.10811 5.03003 1.25742 5.88071 1.25742 6.91633C1.25742 7.95195 2.10811 8.80263 3.14372 8.80263Z" fill="#F2C94C"/>
<path d="M45.826 10.5779C45.826 11.6136 46.6767 12.4642 47.7123 12.4642C48.7479 12.4642 49.5986 11.6136 49.5986 10.5779C49.5986 9.54233 48.7479 8.69165 47.7123 8.69165C46.6767 8.69165 45.826 9.54233 45.826 10.5779Z" fill="#F2C94C"/>
<path d="M48.3408 18.8446C48.6922 18.8446 48.9696 19.122 48.9696 19.4733V47.7124H52.7422V17.9754C52.7422 16.385 51.4477 15.0905 49.8572 15.0905H41.073C40.7586 16.422 40.2223 17.6795 39.5011 18.8631H48.3593L48.3408 18.8446Z" fill="#F2C94C"/>
<path d="M16.57 14.3507C16.9214 16.052 17.6241 17.6425 18.6227 19.011C18.6782 19.0664 18.7152 19.1219 18.7522 19.1959C20.2131 21.1007 22.2474 22.5616 24.67 23.3383C24.9289 23.4123 25.1138 23.6712 25.1138 23.9301V26.3897H27.6289V15.7192C27.1111 16.1075 26.4453 16.3479 25.7426 16.3479C24.0042 16.3479 22.5988 14.9425 22.5988 13.2041C22.5988 11.4657 24.0042 10.0603 25.7426 10.0603H27.6289V9.4315C27.6289 9.08013 27.9063 8.80274 28.2577 8.80274C28.609 8.80274 28.8864 9.08013 28.8864 9.4315V10.0603H30.7727C32.5111 10.0603 33.9166 11.4657 33.9166 13.2041C33.9166 14.9425 32.5111 16.3479 30.7727 16.3479C30.07 16.3479 29.4227 16.1075 28.8864 15.7192V26.3897H31.4015V23.9301C31.4015 23.6527 31.5864 23.4123 31.8453 23.3383C34.2679 22.5801 36.3022 21.1192 37.7631 19.1959C37.8001 19.1219 37.8371 19.0664 37.8926 19.011C38.8912 17.6425 39.6124 16.052 39.9453 14.3507C39.9453 14.3507 39.9453 14.3137 39.9453 14.2952C40.0933 13.537 40.1857 12.7418 40.1857 11.9281C40.1857 5.34452 34.8412 0 28.2577 0C21.6741 0 16.3296 5.34452 16.3296 11.9281C16.3296 12.7418 16.4035 13.5185 16.57 14.2952C16.57 14.2952 16.57 14.3322 16.57 14.3507Z" fill="#F2C94C"/>
<path d="M53.9815 48.9698H33.8979V50.8562C33.8979 51.2075 33.6205 51.4849 33.2691 51.4849H23.2274C22.876 51.4849 22.5986 51.2075 22.5986 50.8562V48.9698H2.51507C1.12808 48.9698 0 50.0979 0 51.4849C0 52.8719 1.12808 54 2.51507 54H53.9815C55.3685 54 56.4965 52.8719 56.4965 51.4849C56.4965 50.0979 55.3685 48.9698 53.9815 48.9698Z" fill="#F2C94C"/>
<path d="M3.77267 17.9754V47.7309H7.54529V19.4918C7.54529 19.1405 7.82268 18.8631 8.17405 18.8631H17.0323C16.311 17.698 15.7747 16.422 15.4604 15.0905H6.67611C5.0857 15.0905 3.79116 16.385 3.79116 17.9754H3.77267Z" fill="#F2C94C"/>
<path d="M32.6401 13.2041C32.6401 12.1684 31.7894 11.3177 30.7538 11.3177H28.8676V13.2041C28.8676 14.2397 29.7182 15.0904 30.7538 15.0904C31.7894 15.0904 32.6401 14.2397 32.6401 13.2041Z" fill="#F2C94C"/>
</svg>
