<svg width="56" height="54" viewBox="0 0 56 54" fill="none" xmlns="http://www.w3.org/2000/svg">
<path d="M44.4394 38.6384H30.3249C30.3249 38.6384 30.2707 38.6384 30.2526 38.6384L24.0539 37.8252L33.2707 47.0421C37.9153 45.6686 41.8731 42.6324 44.4394 38.6384Z" fill="#F2C94C"/>
<path d="M37.1201 33.5963C37.1201 33.5963 37.102 33.6143 37.0839 33.6324L32.1321 37.4276H45.1622C46.7164 34.5903 47.602 31.3373 47.602 27.8674C47.602 26.4035 47.4394 24.9577 47.1321 23.5842L37.1562 33.5601C37.1562 33.5601 37.1381 33.5601 37.1201 33.5782V33.5963Z" fill="#F2C94C"/>
<path d="M22.6803 36.4155L30.1622 37.3914L36.1441 32.8011L37.12 25.3192L32.5297 19.3372L25.0478 18.3613L19.0658 22.9517L18.0899 30.4336L22.6803 36.4155ZM27.614 22.6083C30.5236 22.6083 32.8911 24.9758 32.8911 27.8854C32.8911 30.7951 30.5236 33.1625 27.614 33.1625C24.7044 33.1625 22.3369 30.7951 22.3369 27.8854C22.3369 24.9758 24.7044 22.6083 27.614 22.6083Z" fill="#F2C94C"/>
<path d="M24.8854 17.0965C24.8854 17.0965 24.9035 17.0965 24.9216 17.0965H24.9577L31.1565 17.9097L21.9397 8.69287C17.2951 10.0664 13.3373 13.1025 10.771 17.0965H24.8854Z" fill="#F2C94C"/>
<path d="M18.0903 22.1384C18.0903 22.1384 18.1083 22.1204 18.1264 22.1023L23.0782 18.3071H10.0481C8.49389 21.1445 7.60837 24.3975 7.60837 27.8674C7.60837 29.3312 7.77101 30.777 8.07824 32.1505L18.0541 22.1746C18.0541 22.1746 18.0722 22.1746 18.0903 22.1565V22.1384Z" fill="#F2C94C"/>
<path d="M38.3851 11.0239V25.1384C38.3851 25.1384 38.3851 25.1565 38.3851 25.1745V25.2107L37.5719 31.4095L46.7888 22.1926C45.4153 17.548 42.3791 13.5902 38.3851 11.0239Z" fill="#F2C94C"/>
<path d="M16.8251 44.711V30.5965C16.8251 30.5965 16.8251 30.5784 16.8251 30.5604V30.5242L17.6384 24.3254L8.42151 33.5423C9.795 38.1869 12.8311 42.1447 16.8251 44.711Z" fill="#F2C94C"/>
<path d="M27.596 31.9157C29.8188 31.9157 31.6442 30.1085 31.6442 27.8675C31.6442 27.6145 31.6261 27.3796 31.5719 27.1446C31.1924 27.7952 30.4876 28.229 29.6743 28.229C28.4635 28.229 27.4695 27.235 27.4695 26.0242C27.4695 25.1205 28.0116 24.3434 28.7887 24.0001C28.4092 23.8736 27.9936 23.8193 27.5779 23.8193C25.355 23.8193 23.5297 25.6266 23.5297 27.8675C23.5297 30.1085 25.337 31.9157 27.5779 31.9157H27.596Z" fill="#F2C94C"/>
<path d="M23.313 8.3312L33.2889 18.3071C33.2889 18.3071 33.2889 18.3252 33.307 18.3433C33.307 18.3433 33.3251 18.3613 33.3432 18.3794L37.1383 23.3312V10.3011C34.301 8.74688 31.048 7.86133 27.5781 7.86133C26.1142 7.86133 24.6685 8.02397 23.295 8.3312H23.313Z" fill="#F2C94C"/>
<path d="M31.8975 47.4036L21.9217 37.4277C21.9217 37.4277 21.9217 37.4096 21.9036 37.3915C21.9036 37.3915 21.8855 37.3735 21.8675 37.3554L18.0723 32.4036V45.4337C20.9096 46.9879 24.1626 47.8734 27.6325 47.8734C29.0964 47.8734 30.5421 47.7108 31.9156 47.4036H31.8975Z" fill="#F2C94C"/>
<path d="M29.6925 26.9999C30.2347 26.9999 30.6684 26.5662 30.6684 26.024C30.6684 25.4818 30.2347 25.0481 29.6925 25.0481C29.1503 25.0481 28.7166 25.4818 28.7166 26.024C28.7166 26.5662 29.1503 26.9999 29.6925 26.9999Z" fill="#F2C94C"/>
<path d="M3.07186 14.1326C3.75057 14.1326 4.30079 13.5824 4.30079 12.9037C4.30079 12.225 3.75057 11.6748 3.07186 11.6748C2.39315 11.6748 1.84296 12.225 1.84296 12.9037C1.84296 13.5824 2.39315 14.1326 3.07186 14.1326Z" fill="#F2C94C"/>
<path d="M19.0117 3.09033C19.6804 3.09033 20.2407 3.63249 20.2407 4.31923C20.2407 5.00598 19.6985 5.54816 19.0117 5.54816C18.325 5.54816 17.7828 5.00598 17.7828 4.31923C17.7828 3.63249 18.325 3.09033 19.0117 3.09033Z" fill="#F2C94C"/>
<path d="M53.3671 11.6748C54.0358 11.6748 54.596 12.217 54.596 12.9037C54.596 13.5905 54.0539 14.1326 53.3671 14.1326C52.6804 14.1326 52.1382 13.5905 52.1382 12.9037C52.1382 12.217 52.6804 11.6748 53.3671 11.6748Z" fill="#F2C94C"/>
<path d="M54.5959 44.8011C55.2746 44.8011 55.8249 44.2509 55.8249 43.5722C55.8249 42.8935 55.2746 42.3433 54.5959 42.3433C53.9172 42.3433 53.367 42.8935 53.367 43.5722C53.367 44.2509 53.9172 44.8011 54.5959 44.8011Z" fill="#F2C94C"/>
<path d="M49.6803 47.259C50.349 47.259 50.9093 47.8012 50.9093 48.4879C50.9093 49.1747 50.3671 49.7169 49.6803 49.7169C48.9936 49.7169 48.4514 49.1747 48.4514 48.4879C48.4514 47.8012 48.9936 47.259 49.6803 47.259Z" fill="#F2C94C"/>
<path d="M6.45156 7.98812L8.18649 6.25316L9.92144 7.98812L11.6564 6.25316L9.92144 4.51821L11.6564 2.78329L9.92144 1.04834L8.18649 2.78329L6.45156 1.04834L4.71661 2.78329L6.45156 4.51821L4.71661 6.25316L6.45156 7.98812Z" fill="#F2C94C"/>
<path d="M52.1382 52.771H35.5117C46.0659 49.4095 53.7286 39.524 53.7286 27.8674C53.7286 13.4638 41.9996 1.73486 27.596 1.73486C27.2527 1.73486 26.9816 2.00594 26.9816 2.34931C26.9816 2.69269 27.2527 2.96376 27.596 2.96376C41.331 2.96376 52.4996 14.1325 52.4996 27.8674C52.4996 41.6023 41.331 52.771 27.596 52.771C13.8611 52.771 2.69246 41.6023 2.69246 27.8674C2.69246 27.524 2.42138 27.2529 2.07801 27.2529C1.73464 27.2529 1.46353 27.524 1.46353 27.8674C1.46353 39.524 9.12621 49.4095 19.6804 52.771H11.6563C11.3129 52.771 11.0418 53.0421 11.0418 53.3854C11.0418 53.7288 11.3129 53.9999 11.6563 53.9999H52.1382C52.4816 53.9999 52.7527 53.7288 52.7527 53.3854C52.7527 53.0421 52.4816 52.771 52.1382 52.771Z" fill="#F2C94C"/>
<path d="M3.07228 46.6445C1.37349 46.6445 0 48.018 0 49.7168C0 51.4156 1.37349 52.7891 3.07228 52.7891C4.77108 52.7891 6.14459 51.4156 6.14459 49.7168C6.14459 48.018 4.77108 46.6445 3.07228 46.6445Z" fill="#F2C94C"/>
<path d="M51.524 7.37349C53.5481 7.37349 55.2107 5.72893 55.2107 3.68676C55.2107 1.64459 53.5662 0 51.524 0C49.4819 0 47.8373 1.64459 47.8373 3.68676C47.8373 5.71086 49.4819 7.37349 51.524 7.37349Z" fill="#F2C94C"/>
</svg>
